<?xml version="1.0" standalone="no"?>
<!DOCTYPE svg PUBLIC "-//W3C//DTD SVG 20010904//EN"
 "http://www.w3.org/TR/2001/REC-SVG-20010904/DTD/svg10.dtd">
<svg version="1.0" xmlns="http://www.w3.org/2000/svg"
 width="227.000000pt" height="197.000000pt" viewBox="0 0 227.000000 197.000000"
 preserveAspectRatio="xMidYMid meet">

<g transform="translate(0.000000,197.000000) scale(0.100000,-0.100000)"
fill="#000000" stroke="none">
<path d="M646 1803 c22 -21 171 -161 330 -312 159 -151 304 -288 322 -305 l32
-30 0 72 0 71 -52 3 -53 3 -3 72 -3 72 -89 63 c-49 35 -89 65 -90 68 0 3 64
32 142 65 130 54 140 60 113 67 -36 9 -555 107 -660 124 l-30 5 41 -38z"/>
<path d="M1817 1211 c36 -153 50 -221 44 -221 -3 0 -69 45 -146 101 l-140 100
-3 -192 c-3 -240 -4 -239 101 -239 l73 0 252 143 c139 79 255 146 257 149 3 3
-59 35 -137 71 -79 36 -182 83 -229 105 l-86 40 14 -57z"/>
<path d="M120 1080 c0 -16 7 -20 35 -20 l35 0 0 -85 c0 -78 2 -85 20 -85 18 0
20 7 20 85 l0 85 28 0 c34 0 43 7 35 26 -4 10 -26 14 -89 14 -77 0 -84 -2 -84
-20z"/>
<path d="M330 995 l0 -105 81 0 c71 0 80 2 77 18 -2 13 -15 18 -61 20 -53 3
-57 5 -57 27 0 23 4 25 51 25 43 0 50 3 47 18 -2 13 -15 18 -51 20 -39 3 -47
6 -47 23 0 16 7 19 55 19 48 0 55 2 55 20 0 18 -7 20 -75 20 l-75 0 0 -105z"/>
<path d="M528 995 c-3 -103 -3 -105 20 -105 20 0 22 5 22 52 l0 53 46 -53 c32
-37 53 -52 71 -52 25 0 24 2 -22 56 l-48 55 49 50 48 49 -29 0 c-24 0 -38 -10
-65 -45 -19 -24 -38 -44 -42 -45 -5 0 -8 20 -8 45 0 38 -3 45 -19 45 -18 0
-20 -9 -23 -105z"/>
<path d="M748 995 l-3 -105 64 0 c58 0 65 2 97 34 76 76 18 176 -103 176 l-52
0 -3 -105z m120 49 c15 -10 22 -25 22 -46 0 -42 -25 -68 -67 -68 l-33 0 0 65
c0 64 0 65 28 65 15 0 38 -7 50 -16z"/>
<path d="M980 995 l0 -105 25 0 25 0 0 105 0 105 -25 0 -25 0 0 -105z"/>
<path d="M1291 854 c-33 -38 -535 -585 -635 -691 l-49 -53 259 148 c143 82
324 185 404 230 195 110 179 97 147 122 -52 41 -80 104 -86 198 l-6 85 -34
-39z"/>
</g>
</svg>
