<?xml version="1.0" encoding="iso-8859-1"?>
<!-- Uploaded to: SVG Repo, www.svgrepo.com, Generator: SVG Repo Mixer Tools -->
<svg height="800px" width="800px" version="1.1" id="Layer_1" xmlns="http://www.w3.org/2000/svg" xmlns:xlink="http://www.w3.org/1999/xlink" 
	 viewBox="0 0 512.001 512.001" xml:space="preserve">
<path style="fill:#F87F6E;" d="M488.441,440.89L369.858,322.306c4.908-11.126,2.812-24.595-6.303-33.709l-19.98-19.98
	c-11.849-11.849-31.063-11.849-42.912,0l-34.605,34.605c-11.849,11.85-11.849,31.063,0,42.912l19.98,19.98
	c9.116,9.116,22.589,11.219,33.715,6.309l0,0L438.33,491c11.849,11.849,31.063,11.849,42.912,0l7.198-7.198
	C500.29,471.951,500.29,452.739,488.441,440.89z"/>
<path style="fill:#4CD1B6;" d="M191.527,12.112c-97.664,0-176.836,79.172-176.836,176.836s79.172,176.836,176.836,176.836
	s176.836-79.172,176.836-176.836S289.192,12.112,191.527,12.112z M191.527,317.336c-70.793,0-128.388-57.594-128.388-128.388
	S120.735,60.56,191.527,60.56c70.794,0,128.388,57.594,128.388,128.388S262.321,317.336,191.527,317.336z"/>
<path style="fill:#ECF0F1;" d="M191.527,317.336c-70.793,0-128.388-57.594-128.388-128.388S120.735,60.56,191.527,60.56
	c70.794,0,128.388,57.594,128.388,128.388S262.321,317.336,191.527,317.336z"/>
<g>
	<path style="fill:#231F20;" d="M245.237,260.193c-3.294,0-6.576-1.336-8.967-3.964c-4.5-4.95-4.134-12.61,0.815-17.11
		c14.138-12.851,22.246-31.138,22.246-50.171c0-6.688,5.424-12.112,12.112-12.112s12.112,5.424,12.112,12.112
		c0,25.844-10.999,50.662-30.176,68.095C251.059,259.152,248.144,260.193,245.237,260.193z"/>
	<path style="fill:#231F20;" d="M111.61,201.06c-6.689,0-12.112-5.424-12.112-12.112c0-25.842,10.999-50.662,30.177-68.095
		c4.95-4.498,12.611-4.135,17.109,0.815c4.498,4.95,4.134,12.61-0.815,17.11c-14.138,12.852-22.247,31.139-22.247,50.171
		C123.723,195.637,118.3,201.06,111.61,201.06z"/>
	<path style="fill:#231F20;" d="M191.527,48.448c-77.471,0-140.5,63.028-140.5,140.5s63.029,140.5,140.5,140.5
		s140.499-63.028,140.499-140.5S269,48.448,191.527,48.448z M191.527,305.224c-64.115,0-116.276-52.161-116.276-116.276
		S127.412,72.672,191.527,72.672c64.114,0,116.276,52.161,116.276,116.276S255.642,305.224,191.527,305.224z"/>
	<path style="fill:#231F20;" d="M497.003,432.327L383.592,318.894c2.874-13.59-0.94-28.328-11.476-38.864l-9.962-9.962
		c11.739-24.594,18.322-52.101,18.322-81.119C380.475,84.761,295.714,0,191.528,0C87.342,0,2.58,84.761,2.58,188.948
		s84.761,188.948,188.948,188.948c26.264,0,51.289-5.392,74.037-15.117l0.001,0.001l11.906,11.894
		c8.091,8.091,19.064,12.403,30.147,12.403c3.635,0,7.27-0.594,8.767-0.887L429.77,499.562c8.018,8.018,18.677,12.439,30.014,12.439
		c11.349,0,22.008-4.421,30.026-12.439l7.195-7.195C513.56,475.809,513.56,448.884,497.003,432.327z M191.527,353.672
		c-90.83,0-164.724-73.896-164.724-164.724S100.698,24.224,191.527,24.224S356.25,98.12,356.25,188.948
		S282.357,353.672,191.527,353.672z M479.877,475.24l-7.195,7.195c-3.452,3.44-8.03,5.341-12.899,5.341
		c-4.869,0-9.447-1.902-12.887-5.341c0,0-118.331-118.317-118.279-118.261c-3.417-3.67-8.9-4.974-13.754-2.837
		c-6.831,3.016-14.971,1.49-20.263-3.791l-6.347-6.347l0,0c24.743-14.806,45.832-35.107,61.574-59.207l0.004,0.004l5.16,5.16
		c7.11,7.11,7.11,18.677,0,25.787l-11.361,11.361c-4.736,4.736-4.736,12.403,0,17.139c4.724,4.724,12.391,4.724,17.126,0
		l10.55-10.56l108.573,108.571C486.986,456.563,486.986,468.131,479.877,475.24z"/>
</g>
</svg>